<mxfile host="app.diagrams.net" modified="2024-04-01T14:27:56.032Z" agent="Mozilla/5.0 (Windows NT 10.0; Win64; x64) AppleWebKit/537.36 (KHTML, like Gecko) Chrome/123.0.0.0 Safari/537.36" etag="FX5XjzSC9NRNW0eR7j-O" version="24.1.0" type="device">
  <diagram name="PÃ¡gina-1" id="4RKxWhE0Hhbs3kV2VBbR">
    <mxGraphModel dx="577" dy="770" grid="1" gridSize="10" guides="1" tooltips="1" connect="1" arrows="1" fold="1" page="1" pageScale="1" pageWidth="827" pageHeight="1169" math="0" shadow="0">
      <root>
        <mxCell id="0" />
        <mxCell id="1" parent="0" />
        <mxCell id="iSEYDDZ59iVRkY5HpJAP-4" style="edgeStyle=orthogonalEdgeStyle;rounded=0;orthogonalLoop=1;jettySize=auto;html=1;entryX=1;entryY=0.5;entryDx=0;entryDy=0;" edge="1" parent="1" source="iSEYDDZ59iVRkY5HpJAP-1" target="iSEYDDZ59iVRkY5HpJAP-3">
          <mxGeometry relative="1" as="geometry" />
        </mxCell>
        <mxCell id="iSEYDDZ59iVRkY5HpJAP-8" style="edgeStyle=orthogonalEdgeStyle;rounded=0;orthogonalLoop=1;jettySize=auto;html=1;entryX=0.5;entryY=0;entryDx=0;entryDy=0;" edge="1" parent="1" source="iSEYDDZ59iVRkY5HpJAP-1" target="iSEYDDZ59iVRkY5HpJAP-7">
          <mxGeometry relative="1" as="geometry" />
        </mxCell>
        <mxCell id="iSEYDDZ59iVRkY5HpJAP-1" value="&lt;font style=&quot;font-size: 20px;&quot;&gt;0&lt;/font&gt;" style="ellipse;whiteSpace=wrap;html=1;aspect=fixed;" vertex="1" parent="1">
          <mxGeometry x="374" y="90" width="80" height="80" as="geometry" />
        </mxCell>
        <mxCell id="iSEYDDZ59iVRkY5HpJAP-2" value="" style="endArrow=classic;html=1;rounded=0;entryX=0.5;entryY=0;entryDx=0;entryDy=0;" edge="1" parent="1" target="iSEYDDZ59iVRkY5HpJAP-1">
          <mxGeometry width="50" height="50" relative="1" as="geometry">
            <mxPoint x="414" y="40" as="sourcePoint" />
            <mxPoint x="394" y="-10" as="targetPoint" />
          </mxGeometry>
        </mxCell>
        <mxCell id="iSEYDDZ59iVRkY5HpJAP-3" value="&lt;font style=&quot;font-size: 20px;&quot;&gt;1&lt;/font&gt;" style="ellipse;whiteSpace=wrap;html=1;aspect=fixed;strokeWidth=3;" vertex="1" parent="1">
          <mxGeometry x="134" y="90" width="80" height="80" as="geometry" />
        </mxCell>
        <mxCell id="iSEYDDZ59iVRkY5HpJAP-5" value="&lt;font style=&quot;font-size: 12px;&quot;&gt;one == other&lt;/font&gt;" style="text;html=1;align=center;verticalAlign=middle;resizable=0;points=[];autosize=1;strokeColor=none;fillColor=none;" vertex="1" parent="1">
          <mxGeometry x="251" y="105" width="90" height="30" as="geometry" />
        </mxCell>
        <mxCell id="iSEYDDZ59iVRkY5HpJAP-6" value="&lt;font style=&quot;font-size: 12px;&quot;&gt;return true&lt;/font&gt;" style="text;html=1;align=center;verticalAlign=middle;resizable=0;points=[];autosize=1;strokeColor=none;fillColor=none;" vertex="1" parent="1">
          <mxGeometry x="59" y="110" width="80" height="30" as="geometry" />
        </mxCell>
        <mxCell id="iSEYDDZ59iVRkY5HpJAP-10" style="edgeStyle=orthogonalEdgeStyle;rounded=0;orthogonalLoop=1;jettySize=auto;html=1;entryX=0.5;entryY=0;entryDx=0;entryDy=0;" edge="1" parent="1" source="iSEYDDZ59iVRkY5HpJAP-7" target="iSEYDDZ59iVRkY5HpJAP-16">
          <mxGeometry relative="1" as="geometry">
            <mxPoint x="414" y="360" as="targetPoint" />
          </mxGeometry>
        </mxCell>
        <mxCell id="iSEYDDZ59iVRkY5HpJAP-13" style="edgeStyle=orthogonalEdgeStyle;rounded=0;orthogonalLoop=1;jettySize=auto;html=1;entryX=0;entryY=0.5;entryDx=0;entryDy=0;" edge="1" parent="1" source="iSEYDDZ59iVRkY5HpJAP-7" target="iSEYDDZ59iVRkY5HpJAP-12">
          <mxGeometry relative="1" as="geometry" />
        </mxCell>
        <mxCell id="iSEYDDZ59iVRkY5HpJAP-7" value="&lt;span style=&quot;font-size: 20px;&quot;&gt;2&lt;/span&gt;" style="ellipse;whiteSpace=wrap;html=1;aspect=fixed;" vertex="1" parent="1">
          <mxGeometry x="374" y="220" width="80" height="80" as="geometry" />
        </mxCell>
        <mxCell id="iSEYDDZ59iVRkY5HpJAP-9" value="&lt;font style=&quot;&quot;&gt;&lt;font style=&quot;font-size: 12px;&quot;&gt;~(one == other)&lt;/font&gt;&lt;br&gt;&lt;/font&gt;" style="text;html=1;align=center;verticalAlign=middle;resizable=0;points=[];autosize=1;strokeColor=none;fillColor=none;" vertex="1" parent="1">
          <mxGeometry x="359" y="180" width="110" height="30" as="geometry" />
        </mxCell>
        <mxCell id="iSEYDDZ59iVRkY5HpJAP-12" value="&lt;font style=&quot;font-size: 20px;&quot;&gt;9&lt;/font&gt;" style="ellipse;whiteSpace=wrap;html=1;aspect=fixed;fontSize=20;strokeWidth=3;" vertex="1" parent="1">
          <mxGeometry x="644" y="220" width="80" height="80" as="geometry" />
        </mxCell>
        <mxCell id="iSEYDDZ59iVRkY5HpJAP-14" value="~(one != null &amp;amp;&amp;amp; other != null)" style="text;html=1;align=center;verticalAlign=middle;resizable=0;points=[];autosize=1;strokeColor=none;fillColor=none;" vertex="1" parent="1">
          <mxGeometry x="449" y="238" width="180" height="30" as="geometry" />
        </mxCell>
        <mxCell id="iSEYDDZ59iVRkY5HpJAP-15" value="one != null &amp;amp;&amp;amp; other != null" style="text;html=1;align=center;verticalAlign=middle;resizable=0;points=[];autosize=1;strokeColor=none;fillColor=none;" vertex="1" parent="1">
          <mxGeometry x="334" y="310" width="170" height="30" as="geometry" />
        </mxCell>
        <mxCell id="iSEYDDZ59iVRkY5HpJAP-21" style="edgeStyle=orthogonalEdgeStyle;rounded=0;orthogonalLoop=1;jettySize=auto;html=1;entryX=0.5;entryY=0;entryDx=0;entryDy=0;" edge="1" parent="1" source="iSEYDDZ59iVRkY5HpJAP-16" target="iSEYDDZ59iVRkY5HpJAP-20">
          <mxGeometry relative="1" as="geometry" />
        </mxCell>
        <mxCell id="iSEYDDZ59iVRkY5HpJAP-16" value="&lt;div&gt;&lt;span style=&quot;font-size: 20px;&quot;&gt;3&lt;/span&gt;&lt;/div&gt;" style="ellipse;whiteSpace=wrap;html=1;aspect=fixed;" vertex="1" parent="1">
          <mxGeometry x="374" y="350" width="80" height="80" as="geometry" />
        </mxCell>
        <mxCell id="iSEYDDZ59iVRkY5HpJAP-18" value="Iterator&amp;lt;T&amp;gt; it1 = one.iterator();&lt;div&gt;Iterator&amp;lt;T&amp;gt; it2 = other.iterator();&lt;/div&gt;" style="text;html=1;align=center;verticalAlign=middle;resizable=0;points=[];autosize=1;strokeColor=none;fillColor=none;" vertex="1" parent="1">
          <mxGeometry x="448" y="370" width="190" height="40" as="geometry" />
        </mxCell>
        <mxCell id="iSEYDDZ59iVRkY5HpJAP-25" style="edgeStyle=orthogonalEdgeStyle;rounded=0;orthogonalLoop=1;jettySize=auto;html=1;entryX=0.5;entryY=0;entryDx=0;entryDy=0;" edge="1" parent="1" source="iSEYDDZ59iVRkY5HpJAP-20" target="iSEYDDZ59iVRkY5HpJAP-23">
          <mxGeometry relative="1" as="geometry" />
        </mxCell>
        <mxCell id="iSEYDDZ59iVRkY5HpJAP-33" style="edgeStyle=orthogonalEdgeStyle;rounded=0;orthogonalLoop=1;jettySize=auto;html=1;exitX=1;exitY=0.5;exitDx=0;exitDy=0;entryX=0.5;entryY=0;entryDx=0;entryDy=0;" edge="1" parent="1" source="iSEYDDZ59iVRkY5HpJAP-20" target="iSEYDDZ59iVRkY5HpJAP-32">
          <mxGeometry relative="1" as="geometry" />
        </mxCell>
        <mxCell id="iSEYDDZ59iVRkY5HpJAP-20" value="&lt;div&gt;&lt;span style=&quot;font-size: 20px;&quot;&gt;4&lt;/span&gt;&lt;/div&gt;" style="ellipse;whiteSpace=wrap;html=1;aspect=fixed;" vertex="1" parent="1">
          <mxGeometry x="374" y="460" width="80" height="80" as="geometry" />
        </mxCell>
        <mxCell id="iSEYDDZ59iVRkY5HpJAP-27" style="edgeStyle=orthogonalEdgeStyle;rounded=0;orthogonalLoop=1;jettySize=auto;html=1;entryX=1;entryY=0.5;entryDx=0;entryDy=0;" edge="1" parent="1" source="iSEYDDZ59iVRkY5HpJAP-23" target="iSEYDDZ59iVRkY5HpJAP-26">
          <mxGeometry relative="1" as="geometry" />
        </mxCell>
        <mxCell id="iSEYDDZ59iVRkY5HpJAP-30" style="edgeStyle=orthogonalEdgeStyle;rounded=0;orthogonalLoop=1;jettySize=auto;html=1;exitX=0;exitY=0;exitDx=0;exitDy=0;entryX=0;entryY=0.5;entryDx=0;entryDy=0;" edge="1" parent="1" source="iSEYDDZ59iVRkY5HpJAP-23" target="iSEYDDZ59iVRkY5HpJAP-20">
          <mxGeometry relative="1" as="geometry">
            <Array as="points">
              <mxPoint x="386" y="630" />
              <mxPoint x="304" y="630" />
              <mxPoint x="304" y="500" />
            </Array>
          </mxGeometry>
        </mxCell>
        <mxCell id="iSEYDDZ59iVRkY5HpJAP-23" value="&lt;div&gt;&lt;span style=&quot;font-size: 20px;&quot;&gt;5&lt;/span&gt;&lt;/div&gt;" style="ellipse;whiteSpace=wrap;html=1;aspect=fixed;" vertex="1" parent="1">
          <mxGeometry x="374" y="620" width="80" height="80" as="geometry" />
        </mxCell>
        <mxCell id="iSEYDDZ59iVRkY5HpJAP-24" value="it1.hasNext() &amp;amp;&amp;amp; it2.hasNext()" style="text;html=1;align=center;verticalAlign=middle;resizable=0;points=[];autosize=1;strokeColor=none;fillColor=none;" vertex="1" parent="1">
          <mxGeometry x="324" y="565" width="180" height="30" as="geometry" />
        </mxCell>
        <mxCell id="iSEYDDZ59iVRkY5HpJAP-26" value="&lt;div&gt;&lt;span style=&quot;font-size: 20px;&quot;&gt;6&lt;/span&gt;&lt;/div&gt;" style="ellipse;whiteSpace=wrap;html=1;aspect=fixed;strokeWidth=3;" vertex="1" parent="1">
          <mxGeometry x="124" y="620" width="80" height="80" as="geometry" />
        </mxCell>
        <mxCell id="iSEYDDZ59iVRkY5HpJAP-28" value="!it.next().equals(it2.next())" style="text;html=1;align=center;verticalAlign=middle;resizable=0;points=[];autosize=1;strokeColor=none;fillColor=none;" vertex="1" parent="1">
          <mxGeometry x="212" y="637" width="160" height="30" as="geometry" />
        </mxCell>
        <mxCell id="iSEYDDZ59iVRkY5HpJAP-29" value="return false;" style="text;html=1;align=center;verticalAlign=middle;resizable=0;points=[];autosize=1;strokeColor=none;fillColor=none;" vertex="1" parent="1">
          <mxGeometry x="41" y="645" width="90" height="30" as="geometry" />
        </mxCell>
        <mxCell id="iSEYDDZ59iVRkY5HpJAP-31" value="~(!it.next().equals(it2.next()))" style="text;html=1;align=center;verticalAlign=middle;resizable=0;points=[];autosize=1;strokeColor=none;fillColor=none;" vertex="1" parent="1">
          <mxGeometry x="206" y="510" width="180" height="30" as="geometry" />
        </mxCell>
        <mxCell id="iSEYDDZ59iVRkY5HpJAP-36" style="edgeStyle=orthogonalEdgeStyle;rounded=0;orthogonalLoop=1;jettySize=auto;html=1;entryX=0.5;entryY=0;entryDx=0;entryDy=0;" edge="1" parent="1" source="iSEYDDZ59iVRkY5HpJAP-32" target="iSEYDDZ59iVRkY5HpJAP-35">
          <mxGeometry relative="1" as="geometry" />
        </mxCell>
        <mxCell id="iSEYDDZ59iVRkY5HpJAP-39" style="edgeStyle=orthogonalEdgeStyle;rounded=0;orthogonalLoop=1;jettySize=auto;html=1;exitX=1;exitY=0.5;exitDx=0;exitDy=0;entryX=0.5;entryY=1;entryDx=0;entryDy=0;" edge="1" parent="1" source="iSEYDDZ59iVRkY5HpJAP-32" target="iSEYDDZ59iVRkY5HpJAP-12">
          <mxGeometry relative="1" as="geometry" />
        </mxCell>
        <mxCell id="iSEYDDZ59iVRkY5HpJAP-32" value="&lt;div&gt;&lt;span style=&quot;font-size: 20px;&quot;&gt;7&lt;/span&gt;&lt;/div&gt;" style="ellipse;whiteSpace=wrap;html=1;aspect=fixed;" vertex="1" parent="1">
          <mxGeometry x="514" y="590" width="80" height="80" as="geometry" />
        </mxCell>
        <mxCell id="iSEYDDZ59iVRkY5HpJAP-34" value="~(it1.hasNext() &amp;amp;&amp;amp; it2.hasNext())" style="text;html=1;align=center;verticalAlign=middle;resizable=0;points=[];autosize=1;strokeColor=none;fillColor=none;" vertex="1" parent="1">
          <mxGeometry x="440" y="500" width="200" height="30" as="geometry" />
        </mxCell>
        <mxCell id="iSEYDDZ59iVRkY5HpJAP-35" value="&lt;div&gt;&lt;span style=&quot;font-size: 20px;&quot;&gt;8&lt;/span&gt;&lt;/div&gt;" style="ellipse;whiteSpace=wrap;html=1;aspect=fixed;strokeWidth=3;" vertex="1" parent="1">
          <mxGeometry x="514" y="710" width="80" height="80" as="geometry" />
        </mxCell>
        <mxCell id="iSEYDDZ59iVRkY5HpJAP-37" value="!it1.hasNext() &amp;amp;&amp;amp; !&lt;span style=&quot;color: rgba(0, 0, 0, 0); font-family: monospace; font-size: 0px; text-align: start;&quot;&gt;%3CmxGraphModel%3E%3Croot%3E%3CmxCell%20id%3D%220%22%2F%3E%3CmxCell%20id%3D%221%22%20parent%3D%220%22%2F%3E%3CmxCell%20id%3D%222%22%20value%3D%22it1.hasNext()%20%26amp%3Bamp%3B%26amp%3Bamp%3B%20it2.hasNext()%22%20style%3D%22text%3Bhtml%3D1%3Balign%3Dcenter%3BverticalAlign%3Dmiddle%3Bresizable%3D0%3Bpoints%3D%5B%5D%3Bautosize%3D1%3BstrokeColor%3Dnone%3BfillColor%3Dnone%3B%22%20vertex%3D%221%22%20parent%3D%221%22%3E%3CmxGeometry%20x%3D%22350%22%20y%3D%22540%22%20width%3D%22180%22%20height%3D%2230%22%20as%3D%22geometry%22%2F%3E%3C%2FmxCell%3E%3C%2Froot%3E%3C%2FmxGraphModel%3E&lt;/span&gt;it2.hasNext()" style="text;html=1;align=center;verticalAlign=middle;resizable=0;points=[];autosize=1;strokeColor=none;fillColor=none;" vertex="1" parent="1">
          <mxGeometry x="469" y="670" width="190" height="30" as="geometry" />
        </mxCell>
        <mxCell id="iSEYDDZ59iVRkY5HpJAP-38" value="return true;" style="text;html=1;align=center;verticalAlign=middle;resizable=0;points=[];autosize=1;strokeColor=none;fillColor=none;" vertex="1" parent="1">
          <mxGeometry x="519" y="795" width="80" height="30" as="geometry" />
        </mxCell>
        <mxCell id="iSEYDDZ59iVRkY5HpJAP-40" value="~(!it1.hasNext() &amp;amp;&amp;amp; !&lt;span style=&quot;color: rgba(0, 0, 0, 0); font-family: monospace; font-size: 0px; text-align: start;&quot;&gt;%3CmxGraphModel%3E%3Croot%3E%3CmxCell%20id%3D%220%22%2F%3E%3CmxCell%20id%3D%221%22%20parent%3D%220%22%2F%3E%3CmxCell%20id%3D%222%22%20value%3D%22it1.hasNext()%20%26amp%3Bamp%3B%26amp%3Bamp%3B%20it2.hasNext()%22%20style%3D%22text%3Bhtml%3D1%3Balign%3Dcenter%3BverticalAlign%3Dmiddle%3Bresizable%3D0%3Bpoints%3D%5B%5D%3Bautosize%3D1%3BstrokeColor%3Dnone%3BfillColor%3Dnone%3B%22%20vertex%3D%221%22%20parent%3D%221%22%3E%3CmxGeometry%20x%3D%22350%22%20y%3D%22540%22%20width%3D%22180%22%20height%3D%2230%22%20as%3D%22geometry%22%2F%3E%3C%2FmxCell%3E%3C%2Froot%3E%3C%2FmxGraphModel%3E&lt;/span&gt;it2.hasNext())" style="text;html=1;align=center;verticalAlign=middle;resizable=0;points=[];autosize=1;strokeColor=none;fillColor=none;" vertex="1" parent="1">
          <mxGeometry x="594" y="590" width="200" height="30" as="geometry" />
        </mxCell>
        <mxCell id="iSEYDDZ59iVRkY5HpJAP-42" value="return false;" style="text;html=1;align=center;verticalAlign=middle;resizable=0;points=[];autosize=1;strokeColor=none;fillColor=none;" vertex="1" parent="1">
          <mxGeometry x="717" y="254" width="90" height="30" as="geometry" />
        </mxCell>
      </root>
    </mxGraphModel>
  </diagram>
</mxfile>
